<svg width="7" height="13" viewBox="0 0 7 13" fill="none" xmlns="http://www.w3.org/2000/svg">
<path d="M5.87501 9C5.87501 9.59674 5.63795 10.169 5.216 10.591C4.79404 11.0129 4.22174 11.25 3.62501 11.25C3.02827 11.25 2.45597 11.0129 2.03402 10.591C1.61206 10.169 1.37501 9.59674 1.37501 9V3.375C1.37501 2.77826 1.61206 2.20597 2.03402 1.78401C2.45597 1.36205 3.02827 1.125 3.62501 1.125C4.22174 1.125 4.79404 1.36205 5.216 1.78401C5.63795 2.20597 5.87501 2.77826 5.87501 3.375V9ZM3.62501 0C2.7299 0 1.87146 0.355579 1.23852 0.988515C0.605587 1.62145 0.250008 2.47989 0.250008 3.375V9C0.250008 9.89511 0.605587 10.7536 1.23852 11.3865C1.87146 12.0194 2.7299 12.375 3.62501 12.375C4.52011 12.375 5.37856 12.0194 6.01149 11.3865C6.64443 10.7536 7.00001 9.89511 7.00001 9V3.375C7.00001 2.47989 6.64443 1.62145 6.01149 0.988515C5.37856 0.355579 4.52011 0 3.62501 0V0Z" fill="white"/>
</svg>
